<svg id="drama" xmlns="http://www.w3.org/2000/svg" viewBox="0 0 227 247"><title>drama</title><path d="M109,135c-21.59,7.27-23,10.33-23,12,0,2,2.69,3.67,8,7,6,3.77,9.93,6.23,16,7a26.13,26.13,0,0,0,27-13c3.56-5.63,4.26-10.68,5-16,.31-2.23.21-2.63,0-3C139.51,124.72,123.52,130.11,109,135Z" transform="translate(-46 -57)" style="fill:#070707"/><path d="M257,64l-26,7-29,4-25,3H150l-31-2L87,71,60,64,46,57l.5,28.5,2,29,5,30L61,178l13,35,20,36,21,25,24,21,21,9,17-6,14-10,18-14,15-19,15-24,14-33,9-34,6-37,5-46V57ZM155,127v69.73a3.92,3.92,0,0,0-1-.73c-3.2-1.63-12.72.56-17,2-2.87,1-10.39,3.91-20,15-.91,1.05-13.7,15.94-11,19,1.24,1.41,5.83-.4,15-4,8-3.15,10.11-4.85,15-5,3.69-.11,8,0,8,0a34.4,34.4,0,0,0,10-1,2.24,2.24,0,0,0,1-.95V278l-15-8-26-24L93,212,79,180,69,142l-4-25L62,96V82c6.87,1.64,16.46,3.8,28,6,13.71,2.62,21.6,4.12,32,5a198.85,198.85,0,0,0,33,0Zm69,24c-5,3.81-7.48,5.71-8,6a35.51,35.51,0,0,1-11,4c-3.28.59-7.21,1.3-12,0a23.81,23.81,0,0,1-12-8c-1.56-1.86-2.73-4.27-5-9-4.25-8.87-6.35-13.34-5-15,1-1.21,2.94-.94,13,1,9.18,1.77,13.78,2.66,15,3,4.19,1.16,9.46,3.44,20,8,5.8,2.51,9.05,4,9,6C228,147.94,227.23,148.54,224,151Z" transform="translate(-46 -57)" style="fill:#070707"/></svg>