<svg id="fantasy" xmlns="http://www.w3.org/2000/svg" viewBox="0 0 235 202.54"><title>fantasy</title><path d="M285.51,253.36l-24.67-5.19-20.77-2.6L182.94,101.46l-13-26L159.57,69l-13,6.49-10.39,13,5.19-3.9h10.39L157,91.07v24.67l-3.89,19.48L123.22,245.57a257.3,257.3,0,0,0-45.45,5.2C70.39,252.29,63.46,254.06,57,256l6.49,6.49,16.88,2.6,22.07,1.3,45.44,5.19h46.74l61-3.89,32.45-5.2,3.9-5.19ZM172.67,220,159,214l-12.74,7.81,1.55-14.85-11.37-9.7,14.61-3.12,5.71-13.81,7.49,12.93,14.89,1.17-10,11.11Zm1.15-51.13,4.91-8.6-4.31-8.93,9.71,2,7.15-6.85,1.09,9.85,8.73,4.69-9,4.07-1.77,9.76-6.66-7.33Zm38,72.56-9-2.11L196,245.55l-.77-9.21-8-4.59,8.52-3.58,1.88-9,6,7,9.19-1L208.06,233Z" transform="translate(-57 -69)"/></svg>