<svg id="romance" xmlns="http://www.w3.org/2000/svg" viewBox="0 0 200.79 187.14"><title>romance</title><path d="M291,138c-.53-6.34-2.12-25.4-18-39-2-1.72-16.07-13.39-36-12a51.13,51.13,0,0,0-28,11c-11.4,9.36-13.16,23.94-18,23-3.51-.68-6.79-8.91-12-16-5.91-8-11.71-11.76-19-14-5.76-1.78-19.81-6.1-36,0a52.31,52.31,0,0,0-26,22c-9.26,15.36-7.73,30.61-7,37,1.63,14.16,7.54,23.64,14,34,9.83,15.77,20.84,25.82,32,36,7.17,6.54,19.75,17.3,29,25,11.32,9.42,16.75,13.52,20,22,1.27,3.32,2,6.67,4,7,3.56.58,5-9.62,14-19,6.71-7,10.77-9,20-17,8.19-7.11,9.64-9.57,20-20,19.48-19.61,20.82-17.39,28-26C275.69,187.57,293.37,166.38,291,138Zm-38,28a61.93,61.93,0,0,1-7,18c-3.67,6.12-7.5,9.78-14,16-1.81,1.73-2.57,2.37-14,12-10.29,8.67-15.47,13.05-17,15-5.7,7.28-7.27,13.35-10,13-1.47-.19-1.17-3-4-7a23.56,23.56,0,0,0-5-5c-4.21-3.43-7.91-7.44-12-11-10.53-9.16-15.79-13.74-20-18-6.53-6.6-10.78-10.9-15-18-3.27-5.52-7.22-12.32-8-22a35.81,35.81,0,0,1,3-19,31.07,31.07,0,0,1,11-13c6.95-4.57,13.77-4.84,18-5s11.55-.35,19,4a24,24,0,0,1,9,8c2.4,3.82,2.48,6.86,4,7,2,.18,2.65-4.89,7-10a27.89,27.89,0,0,1,12-8,32,32,0,0,1,17-1c3.94.67,12.05,2.06,19,9a32,32,0,0,1,9,19C255.62,155.41,254.64,159.37,253,166Z" transform="translate(-90.43 -86.89)"/><path d="M213,143c-1.52-.39-7.53-1.94-13,1a22.53,22.53,0,0,0-6,5c-2.26,2.8-2.8,5.07-4,5s-1.45-2.61-3-5c-3-4.6-8.95-5.64-11-6-.64-.11-9.93-1.57-17,5a21,21,0,0,0-6,11,23.73,23.73,0,0,0,0,11c1.29,5.28,4.11,8.57,8,13,2.35,2.67,5.56,5.45,12,11,3.44,3,6.33,5.35,10,9,3.22,3.2,4.85,4.84,6,7,.94,1.77,1.22,2.93,2,3,1.59.14,2.13-4.45,6-9,1.79-2.1,2.47-2.06,6-5,2.46-2.05,4.05-3.67,9-9,7.13-7.68,10.73-11.51,11-12,2-3.63,8.35-14.9,3-25C222,145.45,214,143.25,213,143Z" transform="translate(-90.43 -86.89)"/></svg>