<svg id="scifi" xmlns="http://www.w3.org/2000/svg" viewBox="0 0 175.2 113.35"><title>scifi</title><path d="M225.5,188.5c-.42-6.72-5.05-11.25-9-15-6.79-6.44-13.78-9.86-20-11-4.62-.85-9.16.73-11-3-1.68-3.41.57-4-1-11-2-9.09-7.38-15.11-10-18a48.2,48.2,0,0,0-13-10,53.9,53.9,0,0,0-17-6c-21.58-3.49-38.28,9.42-39,10-5.9,4.72-12.47,11.65-15,21-1.18,4.35.81,10-2,13-1.67,1.79-2.31,2.42-7,4-3.29,1.11-4.74.05-10,3-6.29,3.53-6.38,2.6-10,5-3,2-6.63,4.39-9,9a20.75,20.75,0,0,0-2,12c.87,7.22,5.2,12,7,14,14.81,16.39,53.4,20.26,62,21a204.06,204.06,0,0,0,44-1,142.47,142.47,0,0,0,34-8c10.73-4,16.47-7.7,21-13C221.2,201.34,226,195.78,225.5,188.5ZM88,205a9,9,0,1,1,9-9A9,9,0,0,1,88,205Zm33-51c.87-1.33,3.34-1.13,5-1a10,10,0,0,1,7,3c1.65,1.85,3.25,5.31,2,7-1.59,2.15-7.54,1.11-11-2C121.91,159.08,119.88,155.67,121,154Zm17,59a8,8,0,1,1,8-8A8,8,0,0,1,138,213Zm6-49c-1.66.13-4.13.33-5-1-1.12-1.71.91-5.12,3-7,3.46-3.11,9.41-4.15,11-2,1.25,1.69-.35,5.15-2,7A10,10,0,0,1,144,164Zm30.5,4.5c-4.26,6.43-18.89,9.64-21.5,6.5-1.59-1.91,2.44-5.73,4.46-11.89a20.64,20.64,0,0,0,1-7.61c-.08-1.53-.16-2.93-.36-4.24a12.46,12.46,0,0,0-1.64-4.76,32.12,32.12,0,0,0-6.75-8.17c-3.36-2.78-7.32-4.31-11.75-3.33-.5.11-5.43-.26-9.94,1.34-3,1.08-7.89,3-9.06,6.66-.32,1-1.12,2.35-2,5-1,3,0,9,0,9-1,5,.12,6,.5,8.5.92,6,5.61,8.19,4.5,9.5-2.59,3.07-18.64,0-22.5-7.5-4.78-9.26,5.77-22.08,9-26,3-3.64,9.08-11,20-14,18.43-5,33.21,7.32,34,8C172.07,143.76,180.34,159.68,174.5,168.5ZM196,203a8,8,0,1,1,8-8A8,8,0,0,1,196,203Z" transform="translate(-50.33 -113.9)"/></svg>