<svg aria-hidden="true" style="position: absolute; width: 0; height: 0; overflow: hidden;" version="1.1" xmlns="http://www.w3.org/2000/svg" xmlns:xlink="http://www.w3.org/1999/xlink">
<defs>
<symbol id="icon-drama" viewBox="0 0 29 32">
<title>drama</title>
<path d="M8.162 10.105c-2.797 0.942-2.98 1.338-2.98 1.555 0 0.259 0.348 0.475 1.036 0.907 0.777 0.488 1.286 0.807 2.073 0.907 0.164 0.028 0.353 0.044 0.546 0.044 1.261 0 2.361-0.689 2.943-1.712l0.009-0.017c0.461-0.729 0.552-1.384 0.648-2.073 0.040-0.289 0.027-0.341 0-0.389-0.323-0.555-2.394 0.144-4.275 0.777z"></path>
<path d="M27.336 0.907l-3.368 0.907-3.757 0.518-3.239 0.389h-3.498l-4.016-0.259-4.146-0.648-3.498-0.907-1.814-0.907 0.065 3.692 0.259 3.757 0.648 3.887 0.972 4.34 1.684 4.534 2.591 4.664 2.721 3.239 3.109 2.721 2.721 1.166 2.202-0.777 1.814-1.296 2.332-1.814 1.943-2.462 1.943-3.109 1.814-4.275 1.166-4.405 0.777-4.794 0.648-5.96v-3.109zM14.121 9.069v9.034c-0.037-0.037-0.080-0.069-0.127-0.093l-0.003-0.001c-0.415-0.211-1.648 0.073-2.202 0.259-0.372 0.13-1.346 0.507-2.591 1.943-0.118 0.136-1.775 2.065-1.425 2.462 0.161 0.183 0.755-0.052 1.943-0.518 1.036-0.408 1.31-0.628 1.943-0.648 0.478-0.014 1.036 0 1.036 0 0.062 0.003 0.136 0.005 0.209 0.005 0.386 0 0.76-0.049 1.117-0.141l-0.031 0.007c0.056-0.027 0.1-0.069 0.129-0.122l0.001-0.002v7.378l-1.943-1.036-3.368-3.109-2.721-4.405-1.814-4.146-1.296-4.923-0.518-3.239-0.389-2.721v-1.814c0.89 0.212 2.132 0.492 3.628 0.777 1.776 0.339 2.798 0.534 4.146 0.648 0.64 0.057 1.385 0.089 2.138 0.089s1.497-0.032 2.233-0.095l-0.096 0.007zM23.061 12.178c-0.648 0.494-0.969 0.74-1.036 0.777-0.411 0.237-0.889 0.417-1.396 0.514l-0.029 0.005c-0.425 0.076-0.934 0.168-1.555 0-0.631-0.185-1.162-0.548-1.55-1.030l-0.005-0.006c-0.202-0.241-0.354-0.553-0.648-1.166-0.551-1.149-0.823-1.728-0.648-1.943 0.13-0.157 0.381-0.122 1.684 0.13 1.189 0.229 1.785 0.345 1.943 0.389 0.543 0.15 1.226 0.446 2.591 1.036 0.751 0.325 1.172 0.518 1.166 0.777 0 0.122-0.1 0.2-0.518 0.518z"></path>
</symbol>
<symbol id="icon-fantasy" viewBox="0 0 37 32">
<title>fantasy</title>
<path d="M36.103 29.128l-3.898-0.82-3.282-0.411-9.026-22.768-2.054-4.108-1.638-1.021-2.054 1.025-1.642 2.054 0.82-0.616h1.642l0.828 1.024v3.898l-0.615 3.078-4.722 17.435c-2.581 0.066-5.053 0.362-7.446 0.869l0.265-0.047c-1.166 0.24-2.261 0.52-3.282 0.826l1.025 1.025 2.667 0.411 3.487 0.205 7.179 0.82h7.385l9.638-0.615 5.127-0.822 0.616-0.82zM18.275 23.857l-2.16-0.948-2.013 1.234 0.245-2.346-1.796-1.533 2.308-0.493 0.902-2.182 1.183 2.043 2.353 0.185-1.58 1.755zM18.457 15.779l0.776-1.359-0.681-1.411 1.534 0.316 1.13-1.082 0.172 1.556 1.379 0.741-1.422 0.643-0.28 1.542-1.052-1.158zM24.461 27.243l-1.422-0.333-1.078 0.984-0.122-1.455-1.264-0.725 1.346-0.566 0.297-1.422 0.948 1.106 1.452-0.158-0.752 1.237z"></path>
</symbol>
<symbol id="icon-mystery" viewBox="0 0 30 32">
<title>mystery</title>
<path d="M28.828 25.655l-1.931-2.069-2.621-2.621-2.043-1.745c1.243-1.918 1.982-4.264 1.982-6.781 0-0.009 0-0.018-0-0.027v0.001c0-6.857-5.421-12.414-12.108-12.414s-12.108 5.557-12.108 12.414 5.421 12.414 12.108 12.414c0.004 0 0.009 0 0.014 0 1.897 0 3.689-0.447 5.277-1.242l-0.068 0.031 2.119 2.177 3.724 3.586 2.207 2.207 0.828 0.414 1.793-0.276 1.517-1.241 0.828-1.517v-1.655zM12.138 22.759c-5.713 0-10.345-4.632-10.345-10.345s4.632-10.345 10.345-10.345c5.713 0 10.345 4.632 10.345 10.345v0c0 5.713-4.632 10.345-10.345 10.345v0zM28.759 28.207l-0.414 1.103-0.966 0.966h-1.241l-3.172-3.31-3.31-3.31-0.777-0.949c0.941-0.659 1.754-1.409 2.455-2.256l0.016-0.020 7.408 7.363z"></path>
<path d="M13.379 17.034c0 0.724-0.648 1.31-1.448 1.31s-1.448-0.587-1.448-1.31c0-0.724 0.648-1.31 1.448-1.31s1.448 0.587 1.448 1.31z"></path>
<path d="M13.379 6.621c-0.455-0.174-0.981-0.276-1.53-0.276-1.043 0-2.001 0.364-2.754 0.972l0.008-0.007c-0.394 0.309-0.891 0.697-1.103 1.379-0.072 0.229-0.197 0.659 0 1.103 0.117 0.283 0.337 0.504 0.613 0.618l0.007 0.003c0.103 0.036 0.221 0.057 0.345 0.057s0.242-0.021 0.352-0.060l-0.007 0.002c0.232-0.079 0.428-0.234 0.828-0.828 0.552-0.811 0.437-0.895 0.69-1.103 0.277-0.208 0.627-0.333 1.006-0.333 0.288 0 0.559 0.072 0.796 0.2l-0.009-0.004c0.083 0.044 0.717 0.396 0.828 1.103 0.007 0.056 0.011 0.121 0.011 0.187 0 0.343-0.107 0.661-0.29 0.921l0.003-0.005c-0.15 0.241-0.263 0.302-1.103 0.966-0.307 0.226-0.576 0.452-0.832 0.693l0.004-0.004c-0.207 0.237-0.654 0.752-0.621 1.448 0.008 0.174 0.033 0.663 0.414 0.966 0.19 0.142 0.43 0.227 0.69 0.227s0.499-0.085 0.693-0.229l-0.003 0.002c0.302-0.24 0.181-0.486 0.552-1.103 0.199-0.315 0.427-0.587 0.687-0.825l0.003-0.003c0.575-0.57 0.796-0.552 1.241-0.966 0.451-0.395 0.788-0.909 0.96-1.495l0.006-0.022c0.049-0.202 0.078-0.433 0.078-0.671 0-0.512-0.131-0.994-0.361-1.413l0.008 0.015c-0.541-0.966-1.502-1.284-2.207-1.517z"></path>
</symbol>
<symbol id="icon-romance" viewBox="0 0 34 32">
<title>romance</title>
<path d="M34.296 8.74c-0.091-1.084-0.362-4.343-3.078-6.669-0.342-0.294-2.748-2.29-6.156-2.052-1.83 0.143-3.476 0.829-4.805 1.894l0.017-0.013c-1.949 1.601-2.25 4.094-3.078 3.933-0.6-0.116-1.161-1.524-2.052-2.736-1.011-1.368-2.002-2.011-3.249-2.394-0.985-0.304-3.387-1.043-6.156 0-1.888 0.747-3.419 2.058-4.423 3.722l-0.022 0.040c-1.583 2.626-1.322 5.234-1.197 6.327 0.279 2.421 1.289 4.042 2.394 5.814 1.681 2.697 3.564 4.415 5.472 6.156 1.226 1.118 3.377 2.958 4.959 4.275 1.936 1.611 2.864 2.312 3.42 3.762 0.217 0.568 0.342 1.141 0.684 1.197 0.609 0.099 0.855-1.645 2.394-3.249 1.147-1.197 1.842-1.539 3.42-2.907 1.4-1.216 1.648-1.636 3.42-3.42 3.331-3.353 3.56-2.974 4.788-4.446 0.631-0.758 3.654-4.381 3.249-9.234zM27.799 13.527c-0.258 1.163-0.671 2.191-1.224 3.127l0.027-0.049c-0.628 1.046-1.282 1.672-2.394 2.736-0.309 0.296-0.439 0.405-2.394 2.052-1.76 1.483-2.645 2.232-2.907 2.565-0.975 1.245-1.243 2.283-1.71 2.223-0.251-0.032-0.2-0.513-0.684-1.197-0.244-0.329-0.526-0.611-0.844-0.847l-0.011-0.008c-0.72-0.587-1.353-1.272-2.052-1.881-1.801-1.566-2.7-2.349-3.42-3.078-1.117-1.129-1.843-1.864-2.565-3.078-0.559-0.944-1.235-2.107-1.368-3.762-0.026-0.211-0.041-0.456-0.041-0.705 0-0.923 0.204-1.797 0.569-2.582l-0.016 0.038c0.421-0.917 1.064-1.67 1.862-2.211l0.019-0.012c1.188-0.781 2.355-0.828 3.078-0.855s1.975-0.060 3.249 0.684c0.63 0.327 1.148 0.79 1.53 1.354l0.009 0.014c0.41 0.653 0.424 1.173 0.684 1.197 0.342 0.031 0.453-0.836 1.197-1.71 0.543-0.615 1.234-1.086 2.018-1.358l0.034-0.010c0.526-0.185 1.132-0.292 1.763-0.292 0.405 0 0.8 0.044 1.18 0.128l-0.036-0.007c0.674 0.115 2.061 0.352 3.249 1.539 0.836 0.85 1.397 1.973 1.537 3.224l0.002 0.025c0.106 0.925-0.062 1.602-0.342 2.736z"></path>
<path d="M20.959 9.595c-0.26-0.067-1.288-0.332-2.223 0.171-0.399 0.231-0.738 0.516-1.021 0.849l-0.005 0.005c-0.386 0.479-0.479 0.867-0.684 0.855s-0.248-0.446-0.513-0.855c-0.513-0.787-1.53-0.964-1.881-1.026-0.109-0.019-1.698-0.268-2.907 0.855-0.51 0.494-0.874 1.136-1.022 1.858l-0.004 0.023c-0.070 0.282-0.111 0.607-0.111 0.94s0.040 0.658 0.116 0.968l-0.006-0.028c0.221 0.903 0.703 1.465 1.368 2.223 0.402 0.457 0.951 0.932 2.052 1.881 0.588 0.513 1.082 0.915 1.71 1.539 0.551 0.547 0.829 0.828 1.026 1.197 0.161 0.303 0.209 0.501 0.342 0.513 0.272 0.024 0.364-0.761 1.026-1.539 0.306-0.359 0.422-0.352 1.026-0.855 0.421-0.351 0.693-0.628 1.539-1.539 1.219-1.313 1.835-1.968 1.881-2.052 0.342-0.621 1.428-2.548 0.513-4.275-0.684-1.291-2.052-1.667-2.223-1.71z"></path>
</symbol>
<symbol id="icon-scifi" viewBox="0 0 49 32">
<title>scifi</title>
<path d="M49.453 21.060c-0.119-1.897-1.426-3.176-2.541-4.235-1.917-1.818-3.89-2.784-5.646-3.105-1.304-0.24-2.586 0.206-3.105-0.847-0.474-0.963 0.161-1.129-0.282-3.105-0.565-2.566-2.083-4.266-2.823-5.082-1.037-1.124-2.249-2.066-3.597-2.787l-0.073-0.036c-1.385-0.785-2.997-1.376-4.707-1.68l-0.092-0.014c-6.092-0.985-10.807 2.659-11.010 2.823-1.666 1.333-3.52 3.289-4.235 5.929-0.333 1.228 0.229 2.823-0.565 3.67-0.471 0.505-0.652 0.683-1.976 1.129-0.929 0.313-1.338 0.014-2.823 0.847-1.776 0.997-1.801 0.734-2.823 1.412-0.847 0.565-1.872 1.239-2.541 2.541-0.388 0.762-0.616 1.662-0.616 2.615 0 0.273 0.019 0.541 0.055 0.804l-0.003-0.030c0.246 2.038 1.468 3.388 1.976 3.952 4.181 4.627 15.075 5.72 17.503 5.929 1.471 0.133 3.181 0.21 4.91 0.21 2.649 0 5.256-0.179 7.81-0.525l-0.297 0.033c3.557-0.395 6.806-1.19 9.875-2.35l-0.277 0.092c3.029-1.129 4.65-2.174 5.929-3.67 0.762-0.892 2.117-2.462 1.976-4.517zM10.635 25.719c-1.403 0-2.541-1.138-2.541-2.541s1.138-2.541 2.541-2.541c1.403 0 2.541 1.138 2.541 2.541v0c0 1.403-1.138 2.541-2.541 2.541v0zM19.951 11.321c0.246-0.375 0.943-0.319 1.412-0.282 0.775 0.011 1.473 0.333 1.976 0.846l0 0c0.466 0.522 0.918 1.499 0.565 1.976-0.449 0.607-2.129 0.313-3.105-0.565-0.59-0.542-1.163-1.505-0.847-1.976zM24.75 27.977c-1.247 0-2.259-1.011-2.259-2.259s1.011-2.259 2.259-2.259c1.247 0 2.259 1.011 2.259 2.259v0c0 1.247-1.011 2.259-2.259 2.259v0zM26.444 14.144c-0.469 0.037-1.166 0.093-1.412-0.282-0.316-0.483 0.257-1.445 0.847-1.976 0.977-0.878 2.657-1.172 3.105-0.565 0.353 0.477-0.099 1.454-0.565 1.976-0.504 0.514-1.201 0.836-1.974 0.847l-0.002 0zM35.055 15.414c-1.203 1.815-5.333 2.721-6.070 1.835-0.449-0.539 0.689-1.618 1.259-3.357 0.185-0.543 0.292-1.169 0.292-1.82 0-0.115-0.003-0.23-0.010-0.344l0.001 0.016c-0.023-0.432-0.045-0.827-0.102-1.197-0.067-0.503-0.23-0.958-0.472-1.36l0.009 0.016c-0.522-0.892-1.156-1.654-1.895-2.297l-0.011-0.009c-0.949-0.785-2.067-1.217-3.317-0.94-0.141 0.031-1.533-0.073-2.806 0.378-0.847 0.305-2.227 0.847-2.558 1.88-0.090 0.282-0.316 0.663-0.565 1.412-0.282 0.847 0 2.541 0 2.541-0.282 1.412 0.034 1.694 0.141 2.4 0.26 1.694 1.584 2.312 1.27 2.682-0.731 0.867-5.262 0-6.352-2.117-1.349-2.614 1.629-6.233 2.541-7.34 0.847-1.028 2.563-3.105 5.646-3.952 5.203-1.412 9.376 2.067 9.599 2.259 2.713 2.332 5.048 6.826 3.399 9.316zM41.124 25.154c-1.247 0-2.258-1.011-2.258-2.259s1.011-2.259 2.258-2.259c1.247 0 2.258 1.011 2.258 2.259v0c0 1.247-1.011 2.259-2.258 2.259v0z"></path>
</symbol>
</defs>
</svg>
